<svg width="101" height="101" viewBox="0 0 101 101" fill="none" xmlns="http://www.w3.org/2000/svg">
<path d="M81.3 0.720001H19.3C8.80658 0.720001 0.300003 9.22659 0.300003 19.72V81.72C0.300003 92.2134 8.80658 100.72 19.3 100.72H81.3C91.7934 100.72 100.3 92.2134 100.3 81.72V19.72C100.3 9.22659 91.7934 0.720001 81.3 0.720001Z" fill="url(#paint0_radial_204_98)"/>
<path d="M26.47 50.72C26.47 46.28 26.47 41.84 26.47 37.4C26.47 37.1 26.54 36.93 26.82 36.77C29.08 35.49 31.32 34.19 33.57 32.89C35.88 31.55 38.2 30.2 40.51 28.86C42.51 27.7 44.52 26.55 46.53 25.4C47.68 24.74 48.83 24.08 49.97 23.41C50.21 23.27 50.4 23.26 50.64 23.39C52.23 24.32 53.83 25.25 55.43 26.17C57.1 27.13 58.77 28.09 60.44 29.06C62.07 30 63.7 30.95 65.34 31.89C67.02 32.86 68.7 33.82 70.38 34.79C71.57 35.48 72.76 36.17 73.96 36.86C74.09 36.94 74.16 37.03 74.15 37.18C74.15 37.27 74.15 37.37 74.15 37.46C74.15 46.3 74.15 55.14 74.15 63.99C74.15 64.34 74.06 64.54 73.74 64.72C71.89 65.77 70.05 66.84 68.21 67.9C66.43 68.93 64.64 69.96 62.86 70.99C61.16 71.97 59.45 72.95 57.75 73.94C56.14 74.87 54.53 75.8 52.92 76.74C52.16 77.18 51.39 77.62 50.63 78.07C50.41 78.2 50.22 78.21 49.99 78.07C48.14 76.99 46.29 75.92 44.44 74.85C41.55 73.18 38.65 71.5 35.76 69.83C33.26 68.39 30.75 66.95 28.25 65.51C27.76 65.23 27.29 64.92 26.79 64.67C26.5 64.53 26.47 64.33 26.47 64.06C26.47 59.62 26.47 55.18 26.47 50.74V50.72ZM29.36 50.72C29.27 50.94 29.29 51.17 29.29 51.39C29.29 54.9 29.32 58.41 29.27 61.92C29.26 62.68 29.48 63.13 30.18 63.35C30.26 63.4 30.33 63.46 30.41 63.51C36.94 67.28 43.48 71.05 50.01 74.82C50.25 74.96 50.41 74.95 50.63 74.82C51.9 74.07 53.18 73.34 54.46 72.6C59.97 69.42 65.48 66.23 71 63.06C71.26 62.91 71.34 62.75 71.34 62.46C71.34 58.99 71.34 55.51 71.34 52.04C71.34 51.11 71.34 50.19 71.33 49.26C71.33 48.97 71.4 48.67 71.27 48.38C71.39 48.26 71.34 48.1 71.34 47.96C71.34 44.97 71.34 41.98 71.35 38.99C71.35 38.65 71.21 38.48 70.95 38.33C68.84 37.12 66.73 35.9 64.62 34.69C62.23 33.32 59.84 31.95 57.45 30.58C55.16 29.26 52.87 27.92 50.58 26.59C50.44 26.51 50.3 26.46 50.13 26.56C48.18 27.68 46.23 28.8 44.29 29.92C41.99 31.25 39.69 32.59 37.39 33.93C34.81 35.42 32.23 36.92 29.64 38.4C29.37 38.55 29.3 38.72 29.3 39C29.3 42.77 29.3 46.54 29.3 50.31C29.3 50.45 29.25 50.61 29.37 50.73L29.36 50.72Z" fill="#E6E8EC"/>
<path d="M71.3 49.26C71.3 50.19 71.31 51.11 71.31 52.04C71.31 55.51 71.31 58.99 71.31 62.46C71.31 62.75 71.23 62.91 70.97 63.06C65.45 66.23 59.94 69.42 54.43 72.6C53.15 73.34 51.88 74.07 50.6 74.82C50.38 74.95 50.22 74.96 49.98 74.82C43.45 71.04 36.92 67.28 30.38 63.51C30.3 63.46 30.22 63.41 30.15 63.35C30.15 63.21 30.15 63.08 30.23 62.96C30.53 62.49 30.74 61.96 31 61.47C32.13 59.28 33.37 57.16 34.77 55.14C35.93 53.47 37.14 51.84 38.66 50.47C39.82 49.42 41.08 48.56 42.78 48.86C42.81 48.89 42.84 48.92 42.87 48.95C43.14 49.53 43.41 50.12 43.67 50.7C44.59 52.77 45.44 54.87 46.5 56.87C47.11 58.03 47.77 59.18 48.76 60.07C49.58 60.81 50.5 61.21 51.62 60.87C52.66 60.55 53.53 59.96 54.28 59.21C55.19 58.29 55.89 57.21 56.54 56.1C57.4 54.63 58.19 53.12 59.19 51.74C60.31 50.2 61.63 48.89 63.45 48.2C65.07 47.59 66.74 47.33 68.44 47.74C69.51 48 70.43 48.59 71.3 49.25V49.26Z" fill="#E6E6E6"/>
<path opacity="0.2" d="M29.35 50.72C29.91 49.14 30.45 47.56 31.22 46.07C31.75 45.05 32.36 44.1 33.26 43.37C35.01 41.95 37.66 41.91 39.46 43.71C40.5 44.76 41.29 45.98 42 47.26C42.29 47.79 42.54 48.34 42.8 48.88C41.1 48.58 39.84 49.45 38.68 50.49C37.16 51.86 35.95 53.49 34.79 55.16C33.39 57.18 32.15 59.3 31.02 61.49C30.76 61.99 30.55 62.51 30.25 62.98C30.17 63.1 30.17 63.23 30.17 63.37C29.47 63.14 29.25 62.7 29.26 61.94C29.31 58.43 29.28 54.92 29.28 51.41C29.28 51.18 29.26 50.95 29.35 50.74V50.72Z" fill="white"/>
<path d="M42.89 48.96C43.35 48.96 43.69 49.26 44.09 49.41C44.35 49.6 44.62 49.79 44.88 49.99C46.02 50.87 47 51.93 48.19 52.74C49.64 53.74 51.19 54.39 53.01 54.18C54.22 54.04 55.3 53.65 56.18 52.79C57.02 52.07 57.58 51.14 58.09 50.18C58.76 48.94 59.3 47.64 60.01 46.42C60.59 45.44 61.26 44.53 62.27 43.96C64.02 42.97 66.49 43.2 68.2 44.74C69.22 45.65 70.03 46.73 70.82 47.83C70.95 48.01 71.09 48.2 71.23 48.38C71.36 48.67 71.3 48.96 71.29 49.26C70.42 48.6 69.5 48.01 68.43 47.75C66.73 47.34 65.06 47.59 63.44 48.21C61.62 48.9 60.3 50.21 59.18 51.75C58.18 53.13 57.39 54.64 56.53 56.11C55.88 57.22 55.18 58.3 54.27 59.22C53.52 59.98 52.65 60.57 51.61 60.88C50.48 61.22 49.56 60.82 48.75 60.08C47.76 59.18 47.11 58.04 46.49 56.88C45.43 54.88 44.58 52.78 43.66 50.71C43.4 50.12 43.13 49.54 42.86 48.96H42.89Z" fill="#F2F2F2"/>
<path d="M56.18 52.79C55.3 53.65 54.21 54.04 53.01 54.18C51.19 54.4 49.64 53.74 48.19 52.74C47 51.92 46.01 50.87 44.88 49.99C44.62 49.79 44.35 49.6 44.09 49.41C44.5 48.8 44.72 48.09 45.08 47.45C45.62 46.47 46.19 45.53 46.99 44.74C48.39 43.38 50.24 43.38 51.64 44.68C52.78 45.74 53.5 47.09 54.16 48.47C54.85 49.9 55.51 51.35 56.18 52.79Z" fill="#CCCCCC"/>
<defs>
<radialGradient id="paint0_radial_204_98" cx="0" cy="0" r="1" gradientUnits="userSpaceOnUse" gradientTransform="translate(8.84 80.25) scale(105.99)">
<stop stop-color="#FC819C"/>
<stop offset="1" stop-color="#FD777B"/>
</radialGradient>
</defs>
</svg>
