<svg width="125" height="135" viewBox="0 0 125 135" fill="none" xmlns="http://www.w3.org/2000/svg">
<path d="M91.45 15.94H29.45C18.9566 15.94 10.45 24.4466 10.45 34.94V96.94C10.45 107.433 18.9566 115.94 29.45 115.94H91.45C101.943 115.94 110.45 107.433 110.45 96.94V34.94C110.45 24.4466 101.943 15.94 91.45 15.94Z" fill="url(#paint0_linear_204_172)"/>
<g filter="url(#filter0_d_204_172)">
<path d="M60.67 92.91C60.67 92.91 60.6 92.95 60.57 92.97C57.08 91.82 53.6 90.67 50.11 89.52C47.27 88.59 44.44 87.65 41.59 86.73C41.33 86.64 41.23 86.52 41.22 86.25C41.1 83.79 40.97 81.32 40.83 78.86C40.74 77.09 40.64 75.32 40.53 73.55C40.51 73.26 40.56 73.16 40.89 73.16C43.91 73.17 46.93 73.17 49.95 73.16C50.24 73.16 50.31 73.25 50.32 73.52C50.38 75.34 50.46 77.16 50.53 78.98C50.53 79.17 50.56 79.29 50.77 79.36C54.02 80.46 57.26 81.57 60.5 82.68C60.52 82.68 60.55 82.68 60.57 82.68V82.71C60.57 85.97 60.57 89.22 60.57 92.48C60.57 92.63 60.51 92.8 60.67 92.92V92.91Z" fill="#EDEDED"/>
<path d="M60.57 48.74C60.41 48.74 60.25 48.72 60.1 48.72C53.15 48.72 46.19 48.72 39.24 48.72C38.89 48.72 38.8 48.63 38.78 48.28C38.61 45.84 38.42 43.41 38.23 40.97C38.18 40.36 38.15 39.75 38.1 39.14C38.08 38.95 38.16 38.9 38.32 38.91C38.41 38.91 38.49 38.91 38.58 38.91C45.75 38.91 52.93 38.91 60.1 38.91C60.26 38.91 60.42 38.9 60.57 38.89C60.57 38.9 60.57 38.92 60.57 38.93C60.57 42.18 60.57 45.43 60.57 48.68C60.57 48.69 60.57 48.71 60.57 48.72V48.74Z" fill="#EBECED"/>
<path d="M60.57 68.29C60.42 68.29 60.28 68.27 60.13 68.27C56.83 68.27 53.54 68.27 50.24 68.27C49.9 68.27 49.79 68.2 49.78 67.84C49.65 64.85 49.5 61.87 49.34 58.88C49.32 58.54 49.42 58.48 49.73 58.48C53.2 58.49 56.67 58.48 60.13 58.48C60.28 58.48 60.42 58.48 60.57 58.47V58.5C60.57 61.75 60.57 64.99 60.57 68.24C60.57 68.25 60.57 68.27 60.57 68.28V68.29Z" fill="#EDEDED"/>
<path d="M60.57 68.25C60.57 65 60.57 61.76 60.57 58.51C62.2 58.51 63.82 58.5 65.45 58.5C67.44 58.5 69.43 58.5 71.43 58.5C71.74 58.5 71.85 58.43 71.87 58.11C72.08 55.17 72.3 52.24 72.52 49.3C72.52 49.24 72.52 49.18 72.53 49.12C72.6 48.81 72.49 48.7101 72.16 48.7101C68.44 48.7201 64.73 48.7101 61.01 48.7101C60.86 48.7101 60.72 48.7 60.57 48.69C60.57 45.44 60.57 42.19 60.57 38.94C60.7 38.94 60.84 38.92 60.97 38.92C68.11 38.92 75.24 38.92 82.38 38.92C82.74 38.92 82.83 39 82.81 39.36C82.63 41.93 82.48 44.5001 82.31 47.0701C82.18 49.1801 82.05 51.29 81.92 53.4C81.76 56.01 81.59 58.62 81.43 61.23C81.3 63.4 81.17 65.5701 81.04 67.7401C80.88 70.3901 80.71 73.03 80.55 75.68C80.42 77.85 80.29 80.02 80.16 82.19C80.08 83.56 80 84.92 79.92 86.29C79.91 86.5 79.86 86.6401 79.62 86.7101C73.36 88.7601 67.11 90.8201 60.86 92.8801C60.8 92.9001 60.74 92.91 60.68 92.92C60.52 92.8 60.58 92.63 60.58 92.48C60.58 89.22 60.58 85.9701 60.58 82.7101C63.8 81.6101 67.01 80.5 70.24 79.41C70.53 79.31 70.62 79.1801 70.64 78.8801C70.81 76.1001 71.01 73.32 71.19 70.55C71.23 69.89 71.25 69.23 71.32 68.58C71.35 68.31 71.26 68.27 71.03 68.28C70.15 68.28 69.27 68.28 68.39 68.28C65.92 68.28 63.45 68.28 60.99 68.28C60.86 68.28 60.72 68.27 60.59 68.26L60.57 68.25Z" fill="#FEFEFE"/>
</g>
<defs>
<filter id="filter0_d_204_172" x="0.0969849" y="0.890015" width="124.716" height="134.08" filterUnits="userSpaceOnUse" color-interpolation-filters="sRGB">
<feFlood flood-opacity="0" result="BackgroundImageFix"/>
<feColorMatrix in="SourceAlpha" type="matrix" values="0 0 0 0 0 0 0 0 0 0 0 0 0 0 0 0 0 0 127 0" result="hardAlpha"/>
<feOffset dx="2" dy="2"/>
<feGaussianBlur stdDeviation="20"/>
<feColorMatrix type="matrix" values="0 0 0 0 0 0 0 0 0 0 0 0 0 0 0 0 0 0 0.5 0"/>
<feBlend mode="normal" in2="BackgroundImageFix" result="effect1_dropShadow_204_172"/>
<feBlend mode="normal" in="SourceGraphic" in2="effect1_dropShadow_204_172" result="shape"/>
</filter>
<linearGradient id="paint0_linear_204_172" x1="10.45" y1="65.94" x2="110.45" y2="65.94" gradientUnits="userSpaceOnUse">
<stop stop-color="#039BE5"/>
<stop offset="1" stop-color="#0277BD"/>
</linearGradient>
</defs>
</svg>
