<svg width="101" height="101" viewBox="0 0 101 101" fill="none" xmlns="http://www.w3.org/2000/svg">
<path d="M81.61 0.720001H19.61C9.11659 0.720001 0.610001 9.22659 0.610001 19.72V81.72C0.610001 92.2134 9.11659 100.72 19.61 100.72H81.61C92.1034 100.72 100.61 92.2134 100.61 81.72V19.72C100.61 9.22659 92.1034 0.720001 81.61 0.720001Z" fill="white"/>
<path d="M70.22 70.17C69.75 71.66 69.27 73.15 68.8 74.65C68.45 75.74 68.1 76.84 67.76 77.93C67.74 78.01 67.73 78.08 67.71 78.16H57.79C57.69 78.06 57.57 78.11 57.46 78.11C54.25 78.11 51.04 78.11 47.84 78.11C47.65 78.11 47.47 78.11 47.28 78.11C47.1 77.94 46.9 77.78 46.73 77.61C43.98 74.87 41.24 72.11 38.47 69.39C37.27 68.22 36.41 66.84 35.77 65.31C35.51 64.7 35.26 64.08 35.14 63.41C35.27 63.4 35.38 63.45 35.5 63.49C36.68 63.91 37.85 64.32 39.03 64.74C40.8 65.37 42.57 65.99 44.35 66.62C47.51 67.73 50.67 68.84 53.83 69.96C54.98 70.36 56.13 70.76 57.28 71.17C59.21 71.85 61.14 72.54 63.07 73.22C63.16 73.25 63.25 73.26 63.35 73.22C64.81 72.56 66.28 71.91 67.75 71.26C68.58 70.89 69.41 70.53 70.25 70.17H70.22Z" fill="#55DCC9"/>
<path d="M47.27 78.11C47.46 78.11 47.64 78.11 47.83 78.11C51.04 78.11 54.25 78.11 57.45 78.11C57.56 78.11 57.68 78.07 57.78 78.16H47.27C47.27 78.16 47.27 78.13 47.26 78.11H47.27Z" fill="#81E5D7"/>
<path d="M70.22 70.17C69.39 70.53 68.55 70.89 67.72 71.26C66.25 71.91 64.79 72.56 63.32 73.22C63.22 73.27 63.13 73.26 63.04 73.22C61.11 72.54 59.18 71.85 57.25 71.17C56.1 70.76 54.95 70.36 53.8 69.96C50.64 68.85 47.48 67.74 44.32 66.62C42.55 66 40.78 65.37 39 64.74C37.82 64.32 36.65 63.91 35.47 63.49C35.35 63.45 35.24 63.39 35.11 63.41C35.09 63.39 35.07 63.37 35.05 63.35C35.05 63.3 35.05 63.24 35.05 63.19C34.74 61.95 34.74 60.69 34.74 59.42C34.74 58.33 34.74 57.24 34.74 56.15C34.74 48.99 34.74 41.83 34.74 34.66C35.21 34.29 35.72 33.98 36.22 33.66C41.16 30.38 46.13 27.13 51.05 23.82C52.09 23.12 53.05 23.16 54.1 23.61C54.72 23.88 55.26 24.28 55.74 24.75C57.77 26.76 59.79 28.78 61.82 30.79C61.98 30.95 62.1 31.13 62.17 31.34C62.58 32.54 63.01 33.75 63.42 34.95C63.31 34.94 63.2 34.94 63.1 34.91C62.46 34.75 61.8 34.68 61.15 34.68C58.91 34.66 56.67 34.68 54.43 34.68C48 34.68 41.57 34.68 35.14 34.68C35.04 34.68 34.93 34.65 34.76 34.75C34.88 34.83 34.97 34.88 35.03 34.95C46.69 46.61 58.35 58.26 70.01 69.92C70.09 70 70.17 70.06 70.25 70.13C70.25 70.14 70.25 70.16 70.24 70.17H70.22Z" fill="#00D1B7"/>
<path d="M70.24 70.13C70.16 70.06 70.08 69.99 70 69.92C58.34 58.26 46.68 46.61 35.02 34.95C34.95 34.88 34.86 34.83 34.75 34.75C34.92 34.66 35.03 34.68 35.13 34.68C41.56 34.68 47.99 34.68 54.42 34.68C56.66 34.68 58.9 34.68 61.14 34.68C61.8 34.68 62.45 34.75 63.09 34.91C63.19 34.94 63.3 34.94 63.41 34.95C63.43 34.97 63.44 34.98 63.46 35C63.46 35.08 63.47 35.16 63.5 35.23C63.77 35.98 64.04 36.74 64.31 37.49C64.83 38.96 65.35 40.43 65.87 41.9C66.85 44.69 67.84 47.47 68.82 50.26C69.36 51.78 69.89 53.3 70.43 54.82C71.31 57.33 72.18 59.85 73.09 62.35C73.28 62.86 73.29 63.29 73.05 63.8C72.26 65.47 71.53 67.18 70.79 68.88C70.61 69.29 70.39 69.67 70.28 70.11C70.27 70.11 70.26 70.12 70.24 70.12V70.13Z" fill="#0082C7"/>
<path d="M70.28 70.12C70.39 69.68 70.61 69.3 70.79 68.89C71.53 67.19 72.26 65.49 73.05 63.81C73.29 63.29 73.28 62.87 73.09 62.36C72.19 59.86 71.32 57.34 70.43 54.83C69.89 53.31 69.36 51.79 68.82 50.27C67.84 47.48 66.85 44.7 65.87 41.91C65.35 40.44 64.83 38.97 64.31 37.5C64.04 36.74 63.77 35.99 63.5 35.24C63.47 35.16 63.46 35.09 63.46 35.01C64.49 35.25 65.45 35.66 66.4 36.13C67.77 36.8 68.91 37.75 69.94 38.87C69.99 38.93 70.05 38.99 70.11 39.04C72.34 41.27 74.57 43.5 76.79 45.73C77.09 46.03 77.39 46.35 77.7 46.64C77.83 46.77 77.89 46.9 77.88 47.08C77.87 49.64 77.86 52.21 77.86 54.77C77.86 58.98 77.86 63.18 77.86 67.39C77.86 67.64 77.8 67.74 77.55 67.81C75.19 68.55 72.84 69.31 70.49 70.06C70.41 70.08 70.34 70.12 70.26 70.1L70.28 70.12Z" fill="#01A4E3"/>
<path d="M34.74 34.67C34.74 41.83 34.74 48.99 34.74 56.16C34.74 57.25 34.74 58.34 34.74 59.43C34.74 60.69 34.74 61.96 35.05 63.2C35.06 63.25 35.05 63.31 35.05 63.36C33.78 62.92 32.51 62.47 31.24 62.03C31.13 61.99 31.05 61.93 30.98 61.85C28.88 59.73 26.77 57.62 24.68 55.49C23.96 54.76 23.48 53.88 23.34 52.84C23.25 52.17 23.45 51.62 23.83 51.07C24.58 50.01 25.28 48.9 26 47.82C28.85 43.51 31.71 39.2 34.56 34.9C34.61 34.83 34.67 34.76 34.72 34.69L34.74 34.67Z" fill="#0081C5"/>
</svg>
