<svg width="101" height="101" viewBox="0 0 101 101" fill="none" xmlns="http://www.w3.org/2000/svg">
<path d="M81.61 0.169983H19.61C9.11659 0.169983 0.610001 8.67659 0.610001 19.17V81.17C0.610001 91.6634 9.11659 100.17 19.61 100.17H81.61C92.1034 100.17 100.61 91.6634 100.61 81.17V19.17C100.61 8.67659 92.1034 0.169983 81.61 0.169983Z" fill="url(#paint0_linear_204_179)"/>
<path d="M33.95 54.14C30.32 54.14 26.68 54.14 23.05 54.13C22.6 54.13 22.52 54.28 22.53 54.68C22.57 56.76 22.89 58.76 24.06 60.54C25.52 62.77 27.63 63.99 30.23 64.35C32.17 64.62 34.11 64.57 35.93 63.76C37.92 62.87 39.38 61.47 39.89 59.27C39.96 58.98 40.1 58.97 40.33 58.97C41.71 58.97 43.08 58.97 44.46 58.97C44.96 58.97 44.95 58.97 44.85 59.46C43.87 63.82 41.16 66.64 37 68.1C34.62 68.94 32.14 69.02 29.65 68.76C27.23 68.5 25.01 67.72 23.04 66.28C20.58 64.47 19.06 62.02 18.2 59.13C17.53 56.88 17.17 54.59 17.22 52.25C17.31 48.52 18.33 45.09 20.69 42.13C22.98 39.26 25.95 37.56 29.6 37.08C32.06 36.76 34.49 36.91 36.79 37.86C39.63 39.03 41.68 41.08 43.15 43.74C44.3 45.81 44.91 48.04 45.22 50.36C45.37 51.47 45.45 52.59 45.43 53.71C45.43 54.08 45.31 54.17 44.94 54.17C41.28 54.16 37.61 54.17 33.95 54.17V54.14ZM31.28 49.98C31.28 49.98 31.28 49.99 31.28 50C34.11 50 36.95 50 39.78 50C40.09 50 40.09 49.86 40.06 49.64C39.9 48.53 39.64 47.46 39.18 46.43C38.21 44.27 36.61 42.79 34.42 41.94C33.06 41.41 31.65 41.27 30.2 41.42C28.15 41.64 26.41 42.47 25 43.98C23.54 45.54 22.81 47.43 22.55 49.53C22.5 49.92 22.58 49.98 22.94 49.98C25.72 49.97 28.5 49.98 31.27 49.98H31.28Z" fill="#FDFDFD"/>
<path d="M61.83 55.6799C60.79 57.2299 59.78 58.7299 58.77 60.2199C56.9 62.9999 55.03 65.7799 53.16 68.5599C53.05 68.7199 52.97 68.8799 52.72 68.8799C50.72 68.8699 48.71 68.8799 46.71 68.8799C46.64 68.6899 46.78 68.5999 46.86 68.4999C50.68 63.1399 54.49 57.7899 58.32 52.4399C58.52 52.1499 58.5 51.9899 58.31 51.7199C54.79 46.9499 51.28 42.1599 47.77 37.3799C47.69 37.2699 47.61 37.1599 47.52 37.0299C47.65 36.9399 47.78 36.9699 47.9 36.9699C49.88 36.9699 51.86 36.9699 53.84 36.9699C54.11 36.9699 54.27 37.0499 54.42 37.2699C56.79 40.7499 59.17 44.2099 61.55 47.6799C61.64 47.8199 61.74 47.9499 61.86 48.1099C63.1 46.3699 64.31 44.6799 65.52 42.9699C66.87 41.0699 68.22 39.1799 69.57 37.2799C69.73 37.0499 69.89 36.95 70.18 36.95C72.12 36.96 74.05 36.95 75.99 36.95C76.05 37.12 75.92 37.1899 75.86 37.2799C72.39 41.9299 68.91 46.59 65.42 51.2299C65.18 51.5499 65.2 51.7399 65.42 52.0599C69.34 57.5099 73.26 62.9699 77.17 68.4299C77.25 68.5499 77.44 68.6599 77.35 68.8099C77.28 68.9199 77.09 68.8499 76.95 68.8499C75.03 68.8499 73.11 68.8499 71.18 68.8599C70.84 68.8599 70.65 68.7399 70.47 68.4699C67.69 64.3199 64.9 60.1799 62.11 56.0399C62.03 55.9199 61.95 55.8099 61.84 55.6499L61.83 55.6799Z" fill="#FDFDFD"/>
<defs>
<linearGradient id="paint0_linear_204_179" x1="6.52" y1="6.06998" x2="91.67" y2="91.23" gradientUnits="userSpaceOnUse">
<stop stop-color="#828282"/>
<stop offset="1" stop-color="#666666"/>
</linearGradient>
</defs>
</svg>
