<svg width="101" height="101" viewBox="0 0 101 101" fill="none" xmlns="http://www.w3.org/2000/svg">
<path d="M81.3 0.940002H19.3C8.80658 0.940002 0.300003 9.44659 0.300003 19.94V81.94C0.300003 92.4334 8.80658 100.94 19.3 100.94H81.3C91.7934 100.94 100.3 92.4334 100.3 81.94V19.94C100.3 9.44659 91.7934 0.940002 81.3 0.940002Z" fill="url(#paint0_linear_204_165)"/>
<path d="M37.02 33.61C37.22 36.05 37.4 38.33 37.59 40.6C37.61 40.78 37.65 40.96 37.67 41.14C37.7967 42.4867 38.5533 43.16 39.94 43.16H50.3V53.03H30.86C29.05 53.03 28.96 53.04 28.77 51.3C28.43 48.31 28.23 45.3 27.96 42.3C27.62 38.65 27.26 35 26.93 31.35C26.72 28.93 26.56 26.52 26.36 23.99C26.96 23.96 27.38 23.92 27.81 23.92C35.31 23.92 42.8 23.91 50.3 23.92V33.61H37.02Z" fill="#EBECED"/>
<path d="M50.3 67.89V77.97C49.78 77.98 49.27 77.9 48.74 77.75C43.13 76.17 37.51 74.59 31.89 73.08C30.95 72.82 30.57 72.5 30.51 71.45C30.25 67.24 29.84 63.05 29.5 58.86C29.47 58.47 29.5 58.08 29.5 57.62H38.97C39.13 59.19 39.29 60.77 39.44 62.34C39.52 63.1 39.54 63.87 39.67 64.62C39.71 64.86 39.99 65.17 40.21 65.24C43.39 66.13 46.57 67 49.75 67.85C49.92 67.9 50.11 67.91 50.3 67.89Z" fill="#EBECED"/>
<path d="M72.53 43.16C72.41 44.47 72.29 45.64 72.19 46.81C71.75 51.88 71.32 56.95 70.88 62.01C70.59 65.27 70.29 68.52 70 71.78C69.95 72.37 69.77 72.78 69.12 72.95C63.31 74.54 57.5 76.14 51.71 77.77C51.23 77.91 50.76 77.97 50.3 77.97V67.89C50.48 67.88 50.65 67.85 50.82 67.81C53.9 66.98 56.98 66.15 60.04 65.26C60.35 65.17 60.74 64.75 60.78 64.44C61.09 61.77 61.34 59.1 61.6 56.43C61.71 55.35 61.78 54.27 61.87 53.03H50.3V43.16H72.53Z" fill="#FEFEFE"/>
<path d="M74.19 25.37C74 27.83 73.72 30.29 73.53 32.75C73.46 33.69 72.88 33.62 72.24 33.61H50.3V23.92C57.81 23.91 65.32 23.91 72.83 23.91C74.26 23.91 74.31 23.92 74.19 25.37Z" fill="#FEFEFE"/>
<defs>
<linearGradient id="paint0_linear_204_165" x1="0.300003" y1="50.94" x2="100.3" y2="50.94" gradientUnits="userSpaceOnUse">
<stop stop-color="#EF652A"/>
<stop offset="1" stop-color="#E34E25"/>
</linearGradient>
</defs>
</svg>
