<svg width="101" height="101" viewBox="0 0 101 101" fill="none" xmlns="http://www.w3.org/2000/svg">
<path d="M81.3 0.169983H19.3C8.80658 0.169983 0.300003 8.67659 0.300003 19.17V81.17C0.300003 91.6634 8.80658 100.17 19.3 100.17H81.3C91.7934 100.17 100.3 91.6634 100.3 81.17V19.17C100.3 8.67659 91.7934 0.169983 81.3 0.169983Z" fill="#F4E11E"/>
<path d="M64.51 73.7C65.24 74.57 65.89 75.4699 66.66 76.2399C68.9 78.4599 72.84 79.08 75.52 77.7C78.02 76.41 78.37 73.31 76.08 71.67C74.81 70.76 73.34 70.13 71.91 69.47C69.57 68.39 67.18 67.4399 65.05 65.9599C59.72 62.2499 59.41 54.95 62.22 50.92C64 48.36 66.53 46.9999 69.54 46.5199C72.31 46.0799 75.06 46.23 77.68 47.34C80.18 48.4 81.91 50.28 83.26 52.67C81.2 54 79.16 55.3 77.09 56.64C76.81 56.22 76.57 55.84 76.3 55.48C75 53.68 73.25 52.97 71.07 53.38C69.79 53.62 68.84 54.3299 68.49 55.6199C68.14 56.8999 68.28 58.17 69.33 59.06C70.14 59.75 71.09 60.31 72.05 60.78C74.14 61.8 76.32 62.64 78.37 63.72C79.74 64.44 81.04 65.35 82.21 66.35C84.78 68.56 85.63 71.54 85.55 74.81C85.46 78.23 84.14 81.06 81.28 83.06C79.74 84.14 78.02 84.81 76.18 85.13C72.02 85.85 67.98 85.5499 64.17 83.5799C61.64 82.2699 59.73 80.33 58.35 77.84C58.18 77.54 58.16 77.34 58.51 77.14C60.46 76.03 62.4 74.8899 64.34 73.7699C64.41 73.7299 64.49 73.71 64.51 73.7Z" fill="white"/>
<path d="M30.41 78.22C32.6 76.9 34.71 75.62 36.85 74.32C37.26 74.97 37.63 75.59 38.04 76.18C38.92 77.46 40.07 78.31 41.69 78.35C43.89 78.39 45.62 77.82 45.96 74.82C46.03 74.18 46.05 73.53 46.05 72.89C46.05 64.45 46.05 56 46.05 47.56C46.05 47.0133 46.32 46.74 46.86 46.74C48.98 46.74 51.1 46.74 53.22 46.74H53.93C53.96 46.96 53.99 47.12 53.99 47.27C53.99 56.36 54.03 65.45 53.96 74.54C53.94 77.57 53.04 80.36 50.78 82.55C49.1 84.17 47.02 84.98 44.76 85.29C41.63 85.72 38.58 85.48 35.72 83.98C33.29 82.7 31.59 80.75 30.4 78.22H30.41Z" fill="white"/>
</svg>
