<svg width="100" height="101" viewBox="0 0 100 101" fill="none" xmlns="http://www.w3.org/2000/svg">
<path d="M81 0.940002H19C8.50659 0.940002 0 9.44659 0 19.94V81.94C0 92.4334 8.50659 100.94 19 100.94H81C91.4934 100.94 100 92.4334 100 81.94V19.94C100 9.44659 91.4934 0.940002 81 0.940002Z" fill="white"/>
<path d="M48.32 40.04C48.38 41.58 47.89 42.92 47.08 44.17C42.39 51.34 37.7 58.52 33.01 65.69C31.73 67.65 29.9 68.76 27.6 69.17C23.63 69.88 19.42 67.27 18.61 63.08C18.26 61.26 18.6 59.5 19.61 57.94C23.64 51.75 27.69 45.57 31.73 39.4C32.6 38.08 33.39 36.71 34.36 35.46C35.59 33.89 37.25 32.97 39.19 32.68C42.44 32.19 45.69 33.46 47.45 36.6C48.05 37.67 48.35 38.83 48.31 40.04H48.32Z" fill="#FA275D"/>
<path d="M64.56 32.57C68.07 32.66 71 34.69 71.99 37.77C72.69 39.95 72.46 42.07 71.19 44.01C66.45 51.26 61.72 58.5 56.96 65.74C55.77 67.54 54.1 68.65 51.97 69.08C51.37 69.2 50.76 69.35 50.16 69.31C46.63 69.08 43.62 66.99 42.72 63.43C42.21 61.42 42.6 59.57 43.7 57.89C48.33 50.76 53.02 43.67 57.64 36.54C58.88 34.62 60.51 33.32 62.74 32.79C63.38 32.64 64.04 32.61 64.56 32.58V32.57Z" fill="#FECB00"/>
<path d="M65.94 61.49C65.96 57.22 69.46 53.72 73.78 53.77C78.18 53.82 81.53 57.25 81.52 61.58C81.52 66.02 77.87 69.37 73.61 69.32C69.36 69.27 65.85 65.66 65.94 61.49Z" fill="#00C972"/>
</svg>
