<svg width="101" height="101" viewBox="0 0 101 101" fill="none" xmlns="http://www.w3.org/2000/svg">
<path d="M81.67 0.169983H19.67C9.17661 0.169983 0.670013 8.67659 0.670013 19.17V81.17C0.670013 91.6634 9.17661 100.17 19.67 100.17H81.67C92.1634 100.17 100.67 91.6634 100.67 81.17V19.17C100.67 8.67659 92.1634 0.169983 81.67 0.169983Z" fill="url(#paint0_linear_204_106)"/>
<path d="M49.81 68.14C44.13 64.15 40.61 58.69 39.94 51.84C39.05 42.73 41.91 34.81 48.84 28.56C49.48 27.99 50.17 27.46 50.3 26.52C50.3 26.48 50.42 26.4 50.43 26.41C50.52 26.48 50.6 26.56 50.68 26.64C50.46 28.79 51.08 30.89 51.09 33.02C51.14 41.67 51.09 50.31 51.12 58.96C51.12 60.71 50.3 62.45 51.07 64.21C49.75 65.23 50.58 66.95 49.81 68.14Z" fill="white"/>
<path d="M51.07 64.21C50.31 62.45 51.13 60.71 51.12 58.96C51.1 50.31 51.14 41.67 51.09 33.02C51.08 30.89 50.47 28.79 50.68 26.64C51.71 28.54 53.19 30.08 54.66 31.66C63.98 41.68 63.82 57.5 54.34 66.36C53.77 66.9 53.11 67.34 52.49 67.83C51.32 66.9 51.11 65.59 51.06 64.21H51.07Z" fill="#F2F2F2"/>
<path d="M51.07 64.21C51.12 65.58 51.33 66.9 52.5 67.83C52.18 69.63 51.85 71.43 51.53 73.23C51.46 73.61 51.35 73.95 50.91 73.92C50.49 73.9 50.35 73.55 50.31 73.18C50.14 71.5 49.98 69.82 49.81 68.14C50.58 66.94 49.75 65.23 51.07 64.21Z" fill="#E6E6E6"/>
<defs>
<linearGradient id="paint0_linear_204_106" x1="14.99" y1="14.49" x2="78.12" y2="77.62" gradientUnits="userSpaceOnUse">
<stop stop-color="#10AA50"/>
<stop offset="1" stop-color="#12924F"/>
</linearGradient>
</defs>
</svg>
