<svg width="101" height="101" viewBox="0 0 101 101" fill="none" xmlns="http://www.w3.org/2000/svg">
<path d="M81.61 0.940002H19.61C9.11659 0.940002 0.610001 9.44659 0.610001 19.94V81.94C0.610001 92.4334 9.11659 100.94 19.61 100.94H81.61C92.1034 100.94 100.61 92.4334 100.61 81.94V19.94C100.61 9.44659 92.1034 0.940002 81.61 0.940002Z" fill="white"/>
<path d="M20.06 53.15V26.69L42.98 39.92V48.74L27.7 39.92V57.56L20.06 53.15Z" fill="#00B0FF"/>
<path d="M42.97 39.92L65.89 26.69V53.15L50.61 61.97L42.97 57.56L58.25 48.74V39.92L42.97 48.74V39.92Z" fill="#0081CB"/>
<path d="M42.97 57.56V66.38L58.25 75.2V66.38L42.97 57.56Z" fill="#00B0FF"/>
<path d="M58.25 75.2L81.17 61.97V44.33L73.53 48.74V57.56L58.25 66.38V75.2ZM73.53 39.92V31.1L81.17 26.69V35.51L73.53 39.92Z" fill="#0081CB"/>
</svg>
