<svg width="101" height="101" viewBox="0 0 101 101" fill="none" xmlns="http://www.w3.org/2000/svg">
<path d="M81.45 0.720001H19.45C8.9566 0.720001 0.450012 9.22659 0.450012 19.72V81.72C0.450012 92.2134 8.9566 100.72 19.45 100.72H81.45C91.9434 100.72 100.45 92.2134 100.45 81.72V19.72C100.45 9.22659 91.9434 0.720001 81.45 0.720001Z" fill="#06151A"/>
<path d="M16.18 40.8701C16.61 40.8701 17.04 40.8801 17.47 40.8701C17.61 40.8701 17.69 40.9101 17.77 41.0301C19.1 43.0301 20.44 45.0301 21.78 47.0401C24.16 50.6001 26.54 54.1701 28.93 57.7301C30.94 60.7401 32.96 63.7501 34.97 66.7701C35.82 68.0301 36.66 69.3001 37.51 70.5601C37.55 70.6301 37.6 70.6901 37.61 70.7801C37.37 70.4601 37.13 70.1401 36.89 69.8301C34.52 66.6601 32.13 63.5101 29.77 60.3301C28.88 59.1301 28.06 57.8701 27.21 56.6301C23.99 51.9401 20.77 47.2401 17.56 42.5501C17.53 42.5001 17.5 42.4601 17.42 42.4201C17.4 48.3301 17.38 54.2401 17.37 60.1801H16.19V40.8801L16.18 40.8701Z" fill="white"/>
<path d="M45.4 59.1401V60.1601H32.35V59.9701C32.35 53.6701 32.35 47.3701 32.35 41.0701C32.35 40.9201 32.38 40.8701 32.54 40.8701C36.72 40.8701 40.9 40.8701 45.09 40.8701C45.15 40.8701 45.2 40.8701 45.27 40.8701V41.9001H45.05C41.29 41.9001 37.53 41.9001 33.78 41.9001C33.6267 41.9001 33.55 41.9767 33.55 42.1301C33.55 44.5501 33.55 46.9701 33.55 49.3901C33.55 49.4601 33.55 49.5301 33.55 49.6201H44.58V50.6501H33.56V59.1201H45.41L45.4 59.1401Z" fill="white"/>
<path d="M61.82 60.17C61.45 60.17 61.11 60.15 60.78 60.17C60.5 60.19 60.35 60.09 60.18 59.87C58.14 57.03 56.09 54.19 54.04 51.35C54 51.29 53.95 51.23 53.89 51.15C53.66 51.47 53.44 51.77 53.22 52.07C51.3 54.72 49.37 57.38 47.45 60.03C47.38 60.13 47.31 60.18 47.18 60.17C46.79 60.17 46.39 60.17 45.97 60.17C46.01 60.11 46.03 60.07 46.05 60.03C48.37 56.84 50.69 53.66 53.01 50.47C53.2 50.2 53.2 50.31 53.01 50.04C50.86 47.05 48.71 44.05 46.56 41.06C46.53 41.01 46.49 40.96 46.43 40.88C46.72 40.88 46.98 40.91 47.23 40.88C47.65 40.82 47.89 40.99 48.14 41.33C50.01 43.97 51.9 46.59 53.78 49.22C53.81 49.26 53.84 49.3 53.88 49.35C56.22 46.19 58.52 43.02 60.9 39.9C63.28 36.79 65.73 33.73 68.18 30.66C68.15 30.71 68.12 30.75 68.09 30.8C66.33 33.36 64.57 35.91 62.8 38.47C60.12 42.36 57.44 46.24 54.76 50.13C54.67 50.25 54.72 50.32 54.78 50.42C57.09 53.62 59.4 56.82 61.71 60.02C61.74 60.06 61.77 60.11 61.82 60.18V60.17Z" fill="white"/>
<path d="M69.11 41.91H68.86C66.76 41.91 64.67 41.91 62.57 41.91C62.4233 41.91 62.35 41.8334 62.35 41.68C62.35 41.46 62.35 41.25 62.35 41.03C62.35 40.92 62.38 40.87 62.49 40.88C62.52 40.88 62.56 40.88 62.59 40.88C67.34 40.88 72.09 40.88 76.84 40.88C77.1 40.88 77.07 40.86 77.07 41.11C77.07 41.33 77.07 41.54 77.07 41.76C77.07 41.87 77.04 41.91 76.93 41.9C76.66 41.9 76.39 41.9 76.13 41.9C74.26 41.9 72.39 41.9 70.53 41.9C70.46 41.9 70.39 41.9 70.29 41.9V60.15H69.11V41.9V41.91Z" fill="white"/>
<path d="M81.53 57.68H82.14C82.41 58.27 83.1 58.5 83.69 58.2C83.91 58.09 84.05 57.93 84.05 57.67C84.05 57.41 83.89 57.26 83.68 57.19C83.4 57.09 83.1 57.02 82.81 56.94C82.63 56.89 82.46 56.84 82.29 56.77C81.43 56.41 81.52 55.38 81.96 54.95C82.56 54.37 83.8 54.4 84.35 55.02C84.52 55.21 84.62 55.44 84.63 55.71H84.03C83.74 55.14 83.22 54.94 82.66 55.19C82.43 55.29 82.29 55.45 82.29 55.71C82.29 55.97 82.45 56.11 82.67 56.19C82.95 56.28 83.24 56.35 83.52 56.43C83.69 56.48 83.86 56.52 84.03 56.59C84.84 56.94 84.97 58 84.27 58.54C83.68 59 82.54 59 81.96 58.53C81.69 58.31 81.55 58.03 81.53 57.67V57.68Z" fill="white"/>
<path d="M78.12 57.71H78.73C78.73 57.71 78.75 57.75 78.75 57.77C78.84 58.14 79.07 58.31 79.46 58.28C79.8 58.25 80.01 58.03 80.02 57.67C80.03 56.73 80.02 55.8 80.02 54.86C80.02 54.79 80.02 54.73 80.02 54.65H80.65C80.65 54.65 80.66 54.72 80.66 54.76C80.66 55.72 80.66 56.69 80.66 57.65C80.66 58.17 80.46 58.58 79.95 58.79C79.44 59 78.79 58.89 78.43 58.53C78.21 58.31 78.12 58.04 78.11 57.71H78.12Z" fill="white"/>
<path d="M76.54 58.4001C76.54 58.1601 76.73 57.9701 76.96 57.9801C77.2 57.9801 77.38 58.1701 77.38 58.4101C77.38 58.6501 77.19 58.85 76.95 58.84C76.71 58.84 76.54 58.6501 76.54 58.4101V58.4001Z" fill="white"/>
</svg>
