<svg width="101" height="101" viewBox="0 0 101 101" fill="none" xmlns="http://www.w3.org/2000/svg">
<path d="M81.67 0.720001H19.67C9.17661 0.720001 0.670013 9.22659 0.670013 19.72V81.72C0.670013 92.2134 9.17661 100.72 19.67 100.72H81.67C92.1634 100.72 100.67 92.2134 100.67 81.72V19.72C100.67 9.22659 92.1634 0.720001 81.67 0.720001Z" fill="#8DC505"/>
<path d="M68.54 49.87C68.54 46.76 68.52 43.65 68.55 40.54C68.56 39.84 68.31 39.42 67.7 39.11C66.63 38.56 65.6 37.94 64.54 37.36C63.67 36.88 63.5 36.98 63.5 37.96C63.49 40.85 63.49 43.73 63.5 46.62C63.5 48.39 63.53 48.46 61.97 47.5C61.2 47.03 60.58 47.08 59.82 47.54C57.94 48.69 56.02 49.78 54.09 50.86C53.48 51.19 53.26 51.62 53.27 52.31C53.3 54.59 53.3 56.87 53.27 59.15C53.26 59.87 53.51 60.32 54.13 60.67C56.12 61.78 58.1 62.93 60.06 64.1C60.68 64.47 61.2 64.44 61.8 64.08C63.74 62.92 65.69 61.78 67.67 60.69C68.33 60.33 68.56 59.87 68.55 59.13C68.52 56.04 68.54 52.96 68.54 49.87ZM63.56 56.89C63.56 57.11 63.44 57.32 63.25 57.42L61.22 58.6C61.03 58.71 60.79 58.71 60.6 58.6L60.1 58.31C59.85 58.21 59.61 58.06 59.37 57.89L59.33 57.86L58.57 57.42C58.38 57.32 58.26 57.11 58.26 56.89V54.55C58.26 54.33 58.38 54.12 58.57 54.02L60.6 52.84C60.79 52.73 61.03 52.73 61.22 52.84L61.82 53.19L63.25 54.02C63.44 54.12 63.56 54.33 63.56 54.55V56.89Z" fill="#666860"/>
<path d="M48.16 51.95C48.16 51.42 47.98 51.06 47.51 50.78C45.4 49.58 43.29 48.37 41.19 47.14C40.71 46.86 40.27 46.86 39.78 47.14C37.71 48.36 35.62 49.56 33.53 50.75C33.05 51.03 32.83 51.4 32.83 51.97C32.85 54.38 32.85 56.79 32.84 59.19C32.83 59.72 33.01 60.09 33.48 60.36C35.6 61.56 37.7 62.77 39.8 64C40.29 64.29 40.71 64.28 41.2 64C43.28 62.78 45.36 61.58 47.45 60.39C47.94 60.11 48.17 59.74 48.16 59.17C48.14 57.97 48.16 56.77 48.16 55.56C48.16 54.35 48.15 53.15 48.16 51.95ZM43.13 56.89C43.13 57.11 43.01 57.32 42.82 57.42L41.71 58.06L41.37 58.27L40.79 58.6C40.6 58.71 40.36 58.71 40.17 58.6L39.85 58.41L39.81 58.39C39.54 58.28 39.28 58.12 39.03 57.94L38.99 57.91L38.14 57.42C37.95 57.32 37.83 57.11 37.83 56.89V54.55C37.83 54.33 37.95 54.12 38.14 54.02L39.43 53.27C39.5 53.22 39.58 53.18 39.66 53.14L40.17 52.84C40.36 52.73 40.6 52.73 40.79 52.84L41.37 53.18L41.7 53.37L42.82 54.02C43.01 54.12 43.13 54.33 43.13 54.55V56.89Z" fill="#FDFDFB"/>
<path d="M87.24 55.02C86.37 55.39 85.6101 56 84.7801 56.49C84.4101 56.71 84.14 56.76 83.99 56.63V54.48C83.99 54.27 83.87 54.06 83.68 53.95L81.54 52.72C81.35 52.61 81.12 52.61 80.93 52.72L78.79 53.95C78.6 54.06 78.48 54.27 78.48 54.48V56.96C78.48 57.17 78.6 57.38 78.79 57.49L80.93 58.72L84.2801 60.64C84.7601 60.91 85.23 61.18 85.71 61.45C85.78 61.49 85.85 61.53 85.89 61.6C86.02 61.84 85.55 62 85.41 62.08C84.26 62.73 83.08 63.35 81.93 64.01C81.41 64.3 80.95 64.26 80.44 63.97C78.43 62.79 76.41 61.63 74.37 60.49C73.82 60.18 73.6 59.77 73.62 59.15C73.65 57.97 73.63 56.79 73.63 55.61C73.63 54.43 73.64 53.2 73.62 52C73.61 51.46 73.82 51.1 74.29 50.84C76.38 49.65 78.47 48.44 80.54 47.23C81.06 46.93 81.51 46.93 82.02 47.23C84.03 48.41 86.06 49.57 88.09 50.71C88.63 51.02 88.8 51.43 88.87 52.05C89.02 53.46 88.62 54.43 87.24 55.02Z" fill="#666960"/>
<path d="M12.45 56.71C12.45 55.1 12.46 53.5 12.45 51.89C12.45 51.32 12.65 50.96 13.15 50.68C15.25 49.5 17.34 48.3 19.42 47.09C19.91 46.8 20.33 46.81 20.82 47.09C22.9 48.31 24.98 49.51 27.07 50.7C27.54 50.97 27.73 51.33 27.72 51.86C27.71 55.15 27.72 58.43 27.72 61.72C27.72 62.5 27.48 62.65 26.82 62.28C25.63 61.63 24.47 60.94 23.29 60.27C22.79 59.99 22.63 59.57 22.63 59.02C22.64 57.62 22.62 56.21 22.64 54.81C22.64 54.24 22.47 53.83 21.94 53.6C21.92 53.59 21.9 53.58 21.87 53.56C19.74 52.35 20.41 52.38 18.27 53.57C17.73 53.87 17.49 54.29 17.5 54.91C17.52 56.29 17.49 57.67 17.52 59.05C17.53 59.65 17.32 60.04 16.8 60.33C15.66 60.96 14.54 61.63 13.4 62.26C12.73 62.63 12.48 62.49 12.48 61.73C12.47 60.05 12.48 58.37 12.48 56.69L12.45 56.71Z" fill="#666860"/>
<path d="M83.04 55.03V56.41C83.04 56.63 82.93 56.83 82.74 56.94L81.54 57.63C81.35 57.74 81.12 57.74 80.93 57.63L79.74 56.94C79.55 56.83 79.43 56.63 79.43 56.41V55.03C79.43 54.81 79.55 54.61 79.74 54.5L80.93 53.81C81.12 53.7 81.35 53.7 81.54 53.81L82.74 54.5C82.93 54.61 83.04 54.81 83.04 55.03Z" fill="#666960"/>
</svg>
