<svg width="100" height="101" viewBox="0 0 100 101" fill="none" xmlns="http://www.w3.org/2000/svg">
<path d="M81 0.169983H19C8.50659 0.169983 0 8.67659 0 19.17V81.17C0 91.6634 8.50659 100.17 19 100.17H81C91.4934 100.17 100 91.6634 100 81.17V19.17C100 8.67659 91.4934 0.169983 81 0.169983Z" fill="#040D0F"/>
<path d="M30.09 68.15C30.16 66.01 30.56 63.5399 31.23 61.1099C31.41 60.4599 31.28 60.22 30.63 60.03C27.88 59.24 25.27 58.11 22.9 56.48C22.01 55.87 21.19 55.1799 20.49 54.3599C17.72 51.1599 17.84 47.53 20.81 44.51C22.95 42.33 25.63 41.01 28.43 39.92C29.15 39.64 29.89 39.3799 30.63 39.1799C31.13 39.0399 31.19 38.8 31.07 38.35C30.37 35.55 30 32.7 30.16 29.81C30.24 28.35 30.5 26.91 31.09 25.56C32.5 22.34 35.33 20.8999 38.77 21.6099C41.83 22.2499 44.36 23.89 46.77 25.76C47.74 26.52 48.67 27.3299 49.54 28.2099C49.86 28.5299 50.05 28.48 50.35 28.19C52.59 26.02 55 24.08 57.82 22.7C59.16 22.05 60.55 21.54 62.05 21.42C65.71 21.12 68.29 23.01 69.34 26.75C70.03 29.21 69.97 31.71 69.68 34.22C69.52 35.63 69.27 37.02 68.91 38.39C68.79 38.83 68.86 39.01 69.33 39.15C72.04 39.98 74.65 41.05 77.01 42.66C77.82 43.21 78.58 43.8399 79.26 44.5499C82.3 47.6799 82.29 51.5999 79.23 54.7099C77.05 56.9299 74.34 58.26 71.49 59.35C70.68 59.66 69.86 59.93 69.03 60.17C68.61 60.29 68.52 60.45 68.64 60.88C69.41 63.8 69.92 66.7599 69.86 69.7999C69.84 71.1499 69.67 72.49 69.27 73.78C67.99 77.96 64.72 79.76 60.49 78.62C57.59 77.84 55.14 76.21 52.85 74.34C52.04 73.68 51.25 72.9799 50.5 72.2399C50.12 71.8599 49.9 71.8 49.48 72.22C47.26 74.37 44.85 76.28 42.05 77.65C40.64 78.33 39.17 78.82 37.61 78.93C34.68 79.14 32.32 77.68 31.11 74.97C30.34 73.25 29.94 70.74 30.09 68.16V68.15ZM49.96 39.23C48.36 39.17 46.77 39.33 45.17 39.38C44.77 39.39 44.46 39.4799 44.19 39.8599C42.03 43.0299 40.1 46.34 38.41 49.78C38.27 50.08 38.26 50.31 38.41 50.6C39.9 53.61 41.54 56.53 43.4 59.32C43.6 59.62 43.8 59.7399 44.16 59.7699C47.99 60.0599 51.82 60.0799 55.65 59.7699C56.03 59.7399 56.26 59.61 56.47 59.29C58.31 56.51 59.96 53.62 61.44 50.63C61.64 50.23 61.62 49.94 61.43 49.56C59.8 46.26 57.95 43.0999 55.89 40.0499C55.58 39.5899 55.24 39.36 54.68 39.35C53.11 39.33 51.54 39.15 49.96 39.22V39.23ZM67.12 69.2999C67.06 66.5899 66.62 64.06 66 61.56C65.88 61.09 65.64 61.06 65.27 61.15C62.96 61.7 60.62 62.04 58.27 62.32C57.91 62.36 57.71 62.5099 57.51 62.7999C55.88 65.1099 54.15 67.35 52.22 69.41C51.91 69.74 52 69.9 52.28 70.16C53.25 71.05 54.22 71.96 55.28 72.75C57.13 74.14 59.04 75.3999 61.32 75.9899C64.04 76.6899 65.8 75.7 66.63 73.03C67.02 71.78 67.1 70.4799 67.13 69.2999H67.12ZM32.87 69.09C32.87 71.3 33.17 72.93 33.82 74.15C34.5 75.43 35.54 76.11 37.02 76.12C38.09 76.12 39.1 75.86 40.07 75.45C43.02 74.2 45.44 72.2 47.74 70.03C48 69.78 47.92 69.64 47.72 69.42C45.78 67.29 44 65.03 42.36 62.67C42.22 62.47 42.06 62.3599 41.81 62.3299C39.38 62.0599 36.98 61.66 34.6 61.12C34.22 61.03 34.07 61.1699 33.99 61.5199C33.37 63.9999 32.9 66.5099 32.88 69.0799L32.87 69.09ZM32.87 31.25C32.85 33.48 33.25 35.65 33.73 37.81C33.8 38.1 33.86 38.2699 34.27 38.1799C36.96 37.5399 39.68 37.0999 42.43 36.8599C42.76 36.8299 43.02 36.7299 43.23 36.4299C44.61 34.4999 46.1 32.65 47.71 30.91C47.99 30.61 47.93 30.4499 47.66 30.2099C46.67 29.2699 45.65 28.35 44.55 27.53C42.69 26.15 40.76 24.8999 38.47 24.3599C35.91 23.7499 34.21 24.7099 33.38 27.2099C32.94 28.5299 32.83 29.88 32.86 31.26L32.87 31.25ZM67.05 31.2399C67.06 29.6299 66.95 28.0399 66.3 26.5499C65.57 24.8799 64.21 24.02 62.52 24.19C61.98 24.24 61.43 24.34 60.91 24.51C57.42 25.63 54.71 27.92 52.11 30.38C51.79 30.68 52.09 30.82 52.24 30.98C53.46 32.34 54.69 33.6999 55.72 35.2099C56.47 36.3199 57.29 36.9599 58.72 37.0199C61 37.1199 63.24 37.6 65.46 38.13C65.95 38.25 66.12 38.1199 66.23 37.6099C66.7 35.5099 67.05 33.4 67.05 31.25V31.2399ZM78.78 49.64C78.72 48.08 77.85 46.95 76.75 45.98C74.33 43.86 71.41 42.71 68.4 41.75C68.09 41.65 68.02 41.77 67.93 42.04C67.1 44.69 66.09 47.28 64.93 49.81C64.81 50.08 64.8 50.3099 64.93 50.5799C65.92 52.7299 66.81 54.93 67.54 57.18C67.67 57.57 67.82 57.66 68.23 57.53C69.38 57.16 70.53 56.81 71.64 56.32C73.84 55.35 75.97 54.26 77.59 52.41C78.28 51.62 78.74 50.72 78.79 49.64H78.78ZM31.72 41.72C31.65 41.75 31.59 41.77 31.53 41.79C29.67 42.36 27.87 43.0599 26.17 43.9899C24.56 44.8699 23.04 45.89 21.99 47.44C21.38 48.34 21.09 49.32 21.37 50.42C21.74 51.85 22.71 52.84 23.82 53.7C26.19 55.55 28.93 56.6499 31.78 57.5199C32.14 57.6299 32.26 57.52 32.36 57.19C33.11 54.92 34 52.6999 34.99 50.5199C35.11 50.2499 35.14 50.0199 35.01 49.7399C33.87 47.2299 32.86 44.67 32.05 42.03C32 41.87 31.98 41.65 31.71 41.7L31.72 41.72ZM45.73 62.64C47.03 64.41 48.32 65.97 49.67 67.48C49.97 67.82 50.09 67.61 50.28 67.4C51.55 66 52.75 64.5399 53.88 63.0199C53.95 62.9199 54.1 62.83 53.97 62.64C51.28 62.83 48.58 62.81 45.73 62.64ZM63.15 46.89C64 44.95 64.65 43.0899 65.25 41.2099C65.35 40.8899 65.17 40.8799 64.95 40.8299C63.02 40.3799 61.08 40.03 59.01 39.79C60.5 42.11 61.87 44.39 63.16 46.89H63.15ZM40.88 39.82C38.83 40.06 36.92 40.42 35.01 40.85C34.6 40.94 34.63 41.1299 34.73 41.4299C35.18 42.6899 35.6 43.96 36.06 45.22C36.25 45.74 36.42 46.29 36.79 46.82C38.03 44.41 39.38 42.13 40.87 39.82H40.88ZM59.81 59.34C61.49 59.1 63.01 58.8499 64.52 58.4899C64.72 58.4399 65.09 58.49 64.95 58.07C64.44 56.55 63.89 55.05 63.19 53.45C62.1 55.48 61.05 57.38 59.82 59.34H59.81ZM40.14 59.32C38.9 57.36 37.85 55.44 36.77 53.44C36.11 55.01 35.54 56.5 35.03 58.01C34.93 58.32 35 58.3899 35.28 58.4599C36.83 58.8299 38.39 59.0999 40.13 59.3299L40.14 59.32ZM53.25 36.4899C52.24 35.1199 51.21 33.9399 50.17 32.7699C49.94 32.5099 49.82 32.73 49.69 32.88C49.24 33.39 48.78 33.8999 48.34 34.4299C47.79 35.0799 47.27 35.7499 46.67 36.4899H53.25Z" fill="#60D7F8"/>
<path d="M50.03 43.33C53.78 43.33 56.86 46.43 56.85 50.18C56.85 53.92 53.75 57.02 50.01 57.02C46.24 57.02 43.14 53.91 43.15 50.13C43.17 46.38 46.26 43.32 50.02 43.33H50.03Z" fill="#60D7F8"/>
</svg>
