<svg width="101" height="101" viewBox="0 0 101 101" fill="none" xmlns="http://www.w3.org/2000/svg">
<path d="M81.67 0.940002H19.67C9.17661 0.940002 0.670013 9.44659 0.670013 19.94V81.94C0.670013 92.4334 9.17661 100.94 19.67 100.94H81.67C92.1634 100.94 100.67 92.4334 100.67 81.94V19.94C100.67 9.44659 92.1634 0.940002 81.67 0.940002Z" fill="url(#paint0_linear_204_153)"/>
<path d="M64.07 42.32C62.97 41.99 62.04 41.75 61.14 41.43C60.96 41.37 60.79 41.05 60.75 40.83C60.32 37.93 59.31 35.27 57.55 32.91C56.18 31.07 54.46 29.71 52.16 29.26C49.95 28.83 47.86 29.37 45.83 30.2C43.3 31.23 41.67 33.16 40.41 35.49C39.11 37.89 38.44 40.46 38.22 43.17C37.9 47.08 38.39 50.87 39.84 54.51C40.3 55.66 40.91 56.75 41.45 57.88C41.62 58.24 41.87 58.33 42.26 58.32C43.77 58.28 44.93 58.91 45.61 60.26C46.28 61.6 46.16 62.92 45.29 64.14C44.27 65.57 42.19 66 40.6 65.13C39.01 64.27 38.29 62.27 39.02 60.57C39.21 60.11 39.16 59.8 38.93 59.4C36.94 55.95 35.69 52.25 35.25 48.29C34.71 43.48 35.36 38.83 37.55 34.49C39.58 30.44 42.74 27.59 47.21 26.45C51.55 25.35 55.33 26.53 58.57 29.54C61.31 32.08 62.74 35.34 63.55 38.91C63.79 39.99 63.91 41.1 64.1 42.32H64.07Z" fill="white"/>
<path d="M32.08 49.52C32.38 50.62 32.65 51.58 32.87 52.55C32.9 52.7 32.72 52.96 32.57 53.1C30.72 54.73 29.18 56.58 28.15 58.85C25.98 63.66 28.02 68.54 31.16 70.81C32.89 72.06 34.87 72.54 36.96 72.67C41.02 72.92 44.7 71.77 48.18 69.74C52.13 67.43 55.43 64.5 57.59 60.4C57.77 60.05 57.79 59.83 57.54 59.5C56.5 58.19 56.49 56.41 57.46 55.09C58.45 53.75 60.14 53.24 61.69 53.81C63.2 54.37 64.19 55.92 64.07 57.55C63.96 59.05 62.81 60.46 61.33 60.8C60.91 60.9 60.7 61.1 60.52 61.45C58.94 64.48 56.93 67.17 54.33 69.41C51.09 72.2 47.36 74.04 43.22 75.06C41.4 75.51 39.56 75.86 37.69 75.78C34.34 75.64 31.24 74.76 28.59 72.61C26.23 70.7 25.06 68.12 24.68 65.19C23.94 59.63 26.03 55.1 30 51.32C30.64 50.71 31.34 50.17 32.1 49.52H32.08Z" fill="white"/>
<path d="M54.29 73.87C55.2 73.13 56.05 72.43 56.91 71.75C57.03 71.66 57.29 71.64 57.43 71.7C59.14 72.38 60.92 72.79 62.75 72.93C68.25 73.35 72.59 70.15 73.7 65.1C74.21 62.78 73.61 60.59 72.63 58.48C70.97 54.93 68.31 52.29 65 50.29C60.71 47.7 56.08 46.37 51.04 46.54C50.61 46.55 50.37 46.7 50.16 47.07C49.37 48.38 48.17 49.01 46.66 48.85C45 48.68 43.85 47.6 43.46 46.06C43.04 44.37 43.9 42.63 45.52 41.85C47.01 41.14 48.95 41.64 49.95 43.04C50.21 43.4 50.46 43.53 50.9 43.53C56.59 43.46 61.96 44.68 66.78 47.77C70.53 50.17 73.6 53.24 75.46 57.37C76.57 59.84 77.03 62.44 76.73 65.12C76.41 68.09 74.96 70.49 72.66 72.37C70.09 74.47 67.11 75.56 63.81 75.8C60.48 76.04 57.36 75.24 54.28 73.87H54.29Z" fill="white"/>
<defs>
<linearGradient id="paint0_linear_204_153" x1="50.67" y1="-0.139998" x2="50.67" y2="92.04" gradientUnits="userSpaceOnUse">
<stop stop-color="#764EB9"/>
<stop offset="1" stop-color="#764EDB"/>
</linearGradient>
</defs>
</svg>
