<svg width="101" height="101" viewBox="0 0 101 101" fill="none" xmlns="http://www.w3.org/2000/svg">
<path d="M81.45 0.169983H19.45C8.9566 0.169983 0.450012 8.67659 0.450012 19.17V81.17C0.450012 91.6634 8.9566 100.17 19.45 100.17H81.45C91.9434 100.17 100.45 91.6634 100.45 81.17V19.17C100.45 8.67659 91.9434 0.169983 81.45 0.169983Z" fill="#007ACC"/>
<path d="M74.48 85.49C69.74 85.5 65.85 84.38 62.67 81.45C61.61 80.47 60.85 79.16 59.96 78C59.62 77.56 59.79 77.25 60.22 77C62.01 75.98 63.8 74.97 65.57 73.92C66.24 73.52 66.45 74.02 66.74 74.41C67.85 75.93 69.11 77.3 70.97 77.87C73.02 78.5 75.05 78.51 77.06 77.55C79.28 76.49 79.35 72.96 77.48 71.88C75.71 70.85 73.81 70.03 72 69.06C70.01 68 67.93 67.04 66.11 65.73C62.61 63.2 61.64 59.52 62.14 55.41C62.78 50.16 67.29 47.06 71.91 46.69C74.58 46.48 77.2 46.65 79.65 47.88C81.66 48.89 83.11 50.48 84.33 52.31C84.61 52.73 84.51 53 84.12 53.26C82.45 54.36 80.78 55.47 79.13 56.59C78.53 56.99 78.22 56.65 77.92 56.2C77.08 54.98 76.07 54.03 74.52 53.76C72.4 53.39 70.66 54.2 70.13 55.9C69.69 57.3 70.1 58.85 71.41 59.61C73.21 60.66 75.12 61.5 77 62.41C79.68 63.7 82.38 64.94 84.42 67.22C89.25 72.59 87.09 81.68 80.37 84.29C78.31 85.09 76.22 85.55 74.47 85.49H74.48Z" fill="white"/>
<path d="M38.95 69.5C38.95 64.76 38.93 60.03 38.97 55.29C38.97 54.46 38.75 54.16 37.88 54.17C35 54.22 32.11 54.17 29.23 54.2C28.38 54.21 28.1 53.92 28.13 53.08C28.19 51.49 28.15 49.9 28.15 48.31C28.15 47.14 28.24 47.05 29.4 47.04C33.96 47.03 38.53 47.02 43.09 47.02C47.59 47.02 52.1 47.02 56.6 47.04C57.76 47.04 57.78 47.06 57.78 48.23C57.78 49.88 57.75 51.53 57.81 53.17C57.84 53.96 57.54 54.19 56.79 54.19C54.02 54.17 51.26 54.19 48.49 54.19C47.49 54.19 46.99 54.7066 46.99 55.74C46.99 64.92 46.99 74.1 46.99 83.28C46.99 85.26 47.05 84.95 45.26 84.96C43.55 84.97 41.85 84.96 40.14 84.96C38.96 84.96 38.95 84.96 38.95 83.8C38.95 79.03 38.95 74.27 38.95 69.5Z" fill="white"/>
</svg>
